<svg id="Capa_1" enable-background="new 0 0 504.611 504.611" height="150" viewBox="0 0 504.611 504.611" width="150" xmlns="http://www.w3.org/2000/svg"><g><g><path d="m147.326 387.857h-11.9c-22.225 0-40.242 18.017-40.242 40.242v69.013h241.375v-69.013c0-22.225-18.017-40.242-40.242-40.242z" fill="#c4e2ff"/><path d="m296.318 387.857h-27.925c22.225 0 40.241 18.017 40.241 40.242v69.013h27.925v-69.013c0-22.225-18.017-40.242-40.241-40.242z" fill="#b3dafe"/><path d="m178.588 310.361v60.436l37.146 24.764 37.146-24.764v-60.436z" fill="#ffcebf"/><path d="m305.386 222.53c-.415 0-.827.015-1.239.031-7.095-42.424-43.975-74.758-88.414-74.758-44.438 0-81.319 32.334-88.414 74.758-.411-.017-.823-.031-1.239-.031-16.813 0-30.443 13.629-30.443 30.442s13.63 30.443 30.443 30.443c.415 0 .827-.015 1.239-.031 7.095 42.424 43.975 74.758 88.414 74.758 44.438 0 81.319-32.334 88.414-74.758.411.017.823.031 1.239.031 16.813 0 30.443-13.63 30.443-30.443 0-16.812-13.63-30.442-30.443-30.442z" fill="#ffcebf"/><g><g><path d="m171.974 275.125c-4.081 0-7.389-3.308-7.389-7.388v-16.509c0-4.081 3.308-7.389 7.389-7.389s7.389 3.308 7.389 7.389v16.509c-.001 4.08-3.308 7.388-7.389 7.388z" fill="#384949"/></g><g><path d="m259.494 275.125c-4.081 0-7.388-3.308-7.388-7.388v-16.509c0-4.081 3.307-7.389 7.388-7.389s7.389 3.308 7.389 7.389v16.509c0 4.08-3.308 7.388-7.389 7.388z" fill="#384949"/></g></g><g><path d="m215.734 322.189c-14.573 0-26.428-11.856-26.428-26.428 0-4.081 3.308-7.389 7.389-7.389s7.389 3.308 7.389 7.389c0 6.425 5.227 11.651 11.651 11.651 6.425 0 11.651-5.227 11.651-11.651 0-4.081 3.308-7.389 7.389-7.389s7.389 3.308 7.389 7.389c-.002 14.572-11.857 26.428-26.43 26.428z" fill="#ffb09e"/></g><path d="m215.734 395.561-19.04 19.88 6.901 27.043h24.278l6.901-27.043z" fill="#fd544d"/><path d="m203.595 442.484-10.731 54.627h45.736l-10.731-54.627z" fill="#fd544d"/><path d="m305.386 222.53c-.415 0-.827.015-1.239.031-7.095-42.424-43.975-74.758-88.414-74.758-4.265 0-8.459.304-12.566.88 38.676 5.426 69.434 35.527 75.847 73.878.411-.017.823-.031 1.239-.031 16.813 0 30.443 13.629 30.443 30.442s-13.63 30.443-30.443 30.443c-.415 0-.827-.015-1.239-.031-6.414 38.351-37.171 68.451-75.847 73.878 4.107.576 8.301.88 12.566.88 44.438 0 81.319-32.334 88.414-74.758.411.017.823.031 1.239.031 16.813 0 30.443-13.63 30.443-30.443 0-16.812-13.63-30.442-30.443-30.442z" fill="#ffbfb1"/><path d="m277.132 118.223c-6.702-10.747-18.624-17.903-32.223-17.903h-72.925c-37.155 0-67.276 30.12-67.276 67.276v54.967h127.339c13.029 0 24.908-4.909 33.902-12.971 6.288 7.9 15.981 12.971 26.863 12.971h33.946v-54.009c.001-27.566-22.153-49.944-49.626-50.331z" fill="#c4573a"/><g><path d="m277.132 118.223c-6.702-10.747-18.624-17.903-32.223-17.903h-27.925c13.599 0 25.521 7.156 32.223 17.903 27.473.387 49.627 22.765 49.627 50.329v54.009h27.925v-54.009c0-27.564-22.154-49.942-49.627-50.329z" fill="#a74b30"/></g><g><path d="m280.575 295.76h-11.207c-4.081 0-7.389-3.308-7.389-7.389s3.308-7.388 7.389-7.388h11.207c4.081 0 7.388 3.308 7.388 7.388s-3.308 7.389-7.388 7.389z" fill="#ffb09e"/></g><g><path d="m162.1 295.76h-11.207c-4.081 0-7.389-3.308-7.389-7.389s3.308-7.388 7.389-7.388h11.207c4.081 0 7.389 3.308 7.389 7.388s-3.309 7.389-7.389 7.389z" fill="#ffb09e"/></g><path d="m353.898 124.291c8.483-8.72 13.537-20.791 12.975-34.044-.995-23.438-19.889-42.525-43.217-43.89-24.063 1.478-43.122 21.457-43.122 45.891 0 12.466 4.965 23.767 13.022 32.047 5.764 5.924 10.124 13.066 12.756 20.902v.002h34.824c2.633-7.838 6.996-14.981 12.762-20.908z" fill="#fdb97e"/><path d="m323.724 181.736c9.833-1.363 17.412-9.781 17.412-19.989v-16.548h-34.824v16.548c0 10.208 7.578 18.626 17.412 19.989z" fill="#537983"/><path d="m372.457 90.247c-1.008-23.746-20.385-43.038-44.135-43.948-4-.153-7.89.211-11.613 1.02 19.994 4.361 35.307 21.891 36.2 42.928.562 13.253-4.491 25.324-12.975 34.044-5.766 5.927-10.129 13.07-12.762 20.908h19.548c2.633-7.838 6.997-14.981 12.762-20.908 8.484-8.72 13.538-20.791 12.975-34.044z" fill="#fea95c"/><path d="m327.173 145.199v16.548c0 7.612-4.213 14.234-10.43 17.679 2.897 1.605 6.227 2.526 9.774 2.526 11.159 0 20.204-9.046 20.204-20.204v-16.548h-19.548z" fill="#3e5959"/><path d="m178.588 370.798-31.4 17.059 44.3 33.019 24.246-25.314z" fill="#b3dafe"/><path d="m252.88 370.798 31.4 17.059-44.3 33.019-24.246-25.314z" fill="#b3dafe"/><path d="m252.88 370.798-11.285 7.523 17.552 9.536-29.636 22.089 10.469 10.93 44.3-33.019z" fill="#8ac9fe"/></g><g><path d="m377.408 75.825c-1.281-3.94-5.518-6.093-9.452-4.813-3.938 1.281-6.093 5.513-4.812 9.452 1.062 3.265 1.674 6.663 1.819 10.11.024.56.036 1.119.036 1.674 0 10.07-3.869 19.592-10.894 26.813-5.238 5.385-9.506 11.751-12.521 18.637l-30.138-.001c-5.158-11.78-12.023-17.948-14.06-20.324-.073-.037-1.487-1.834-1.537-1.899-5.063-6.657-7.817-14.744-7.817-23.226 0-21.22 17.264-38.483 38.483-38.483.504 0 1.012.009 1.519.029 5.923.227 11.574 1.792 16.798 4.651 3.634 1.989 8.191.655 10.18-2.978 1.988-3.633.655-8.191-2.979-10.18-7.176-3.928-15.276-6.169-23.428-6.482-30.427-1.139-55.573 23.259-55.573 53.443 0 3.837.418 7.613 1.206 11.286-8.076-6.848-18.371-10.715-29.33-10.715h-72.924c-41.231 0-74.776 33.544-74.776 74.776v54.966c0 1.583.494 3.05 1.331 4.261-6.461 6.804-10.401 16.01-10.401 26.15 0 19.24 14.394 35.181 32.979 37.62 6.227 26.695 23.904 50.685 49.97 64.169v11.575l-25.806 14.02h-9.856c-26.325 0-47.742 21.417-47.742 47.742v69.013c0 4.142 3.358 7.5 7.5 7.5h27.341c4.142 0 7.5-3.358 7.5-7.5s-3.358-7.5-7.5-7.5h-19.841v-61.513c0-18.054 14.688-32.742 32.742-32.742h9.275l42.306 31.532c1.303.971 3.192 1.633 5.167 1.453.024-.002.048-.003.071-.005l3.665 14.362-9.216 46.912h-29.169c-4.142 0-7.5 3.358-7.5 7.5s3.358 7.5 7.5 7.5h179.035c4.143 0 7.5-3.358 7.5-7.5v-69.013c0-26.325-21.417-47.742-47.742-47.742h-10.132l-25.805-14.02v-11.575c26.065-13.483 43.742-37.473 49.971-64.169 18.585-2.438 32.979-18.379 32.979-37.62 0-10.141-3.94-19.346-10.401-26.151.837-1.21 1.331-2.677 1.331-4.26v-34.22c11.519-3.359 19.962-14.007 19.962-26.595v-15.221c2.294-6.318 5.945-12.181 10.638-17.005 9.763-10.035 15.14-23.272 15.14-37.27 0-.773-.016-1.549-.05-2.319-.203-4.799-1.058-9.544-2.542-14.105zm-265.2 91.77c0-32.96 26.815-59.776 59.776-59.776h72.924c10.58 0 20.247 5.373 25.859 14.372 1.351 2.165 3.708 3.495 6.259 3.531 2.899.041 5.79.376 8.621.999 3.058 3.64 9.095 8.602 13.164 19.805 0 16.369-.042 15.953.12 17.743 1.062 11.707 9.411 21.256 20.327 24.218v26.574c-9.692 0-9.057 0-26.445 0-8.213 0-15.865-3.696-20.995-10.141-2.735-3.437-7.738-3.725-10.874-.915-1.491 1.337-3.064 2.561-4.705 3.667-7.112 4.796-15.514 7.388-24.192 7.388-5.08 0-114.758 0-119.839 0zm78.448 243.307-29.586-22.052 17.122-9.302 25.935 17.29zm25.078-24.355-29.646-19.764v-5.761c7.785 2.504 16.22 4.052 24.646 4.478.284.015.566.037.851.049 11.694.489 23.316-1.157 33.795-4.527v5.761zm10.743 31.074-4.431 17.363h-12.625l-4.431-17.363c6.606-6.897 4.688-4.894 10.743-11.217 6.047 6.313 4.135 4.317 10.744 11.217zm-24.496 71.99 7.784-39.627h11.934l7.784 39.627zm84.786-94.254h9.55c18.054 0 32.742 14.688 32.742 32.742v61.513h-84.289l-9.214-46.905 3.667-14.37c1.798.183 3.714-.312 5.238-1.448zm-16.37-6.507-29.586 22.052-13.471-14.064 25.935-17.29zm34.989-112.934c-.313 0-.625-.013-.936-.025-3.783-.169-7.077 2.529-7.7 6.256-6.788 40.594-41.746 68.495-81.016 68.495-39.471 0-74.255-28.064-81.016-68.495-.607-3.626-3.747-6.263-7.394-6.263-.102 0-.204.002-.306.006-.311.013-.623.025-.937.025-12.651 0-22.943-10.292-22.943-22.943 0-12.31 9.593-22.346 21.866-22.911h107.043c11.572 0 23.191-3.437 33.195-10.373 7.567 6.661 17.285 10.373 27.57 10.373h13.65c12.272.565 21.865 10.602 21.865 22.911.002 12.652-10.29 22.944-22.941 22.944zm33.835-114.169c0 6.932-5.593 12.61-12.553 12.693-14.77.199-12.856-15.254-12.856-21.74h25.409z"/><path d="m326.517 31.794c4.143 0 7.5-3.358 7.5-7.5v-16.794c0-4.142-3.357-7.5-7.5-7.5s-7.5 3.358-7.5 7.5v16.794c0 4.142 3.357 7.5 7.5 7.5z"/><path d="m281.801 40.778c2.928 2.928 7.678 2.93 10.606 0 2.93-2.929 2.93-7.677.001-10.606l-11.875-11.875c-2.929-2.929-7.678-2.93-10.606 0-2.93 2.929-2.93 7.677-.001 10.606z"/><path d="m383.106 18.296c-2.928-2.93-7.677-2.929-10.606 0l-11.875 11.875c-2.929 2.929-2.929 7.678.001 10.606 2.926 2.928 7.676 2.93 10.606 0l11.875-11.875c2.929-2.928 2.929-7.677-.001-10.606z"/><path d="m409.428 61.178h-16.795c-4.143 0-7.5 3.358-7.5 7.5s3.357 7.5 7.5 7.5h16.795c4.143 0 7.5-3.358 7.5-7.5s-3.358-7.5-7.5-7.5z"/><path d="m243.606 76.178h16.794c4.143 0 7.5-3.358 7.5-7.5s-3.357-7.5-7.5-7.5h-16.794c-4.142 0-7.5 3.358-7.5 7.5s3.358 7.5 7.5 7.5z"/><path d="m171.974 243.727c-4.142 0-7.5 3.358-7.5 7.5v16.509c0 4.142 3.358 7.5 7.5 7.5s7.5-3.358 7.5-7.5v-16.509c0-4.142-3.358-7.5-7.5-7.5z"/><path d="m259.494 243.727c-4.142 0-7.5 3.358-7.5 7.5v16.509c0 4.142 3.358 7.5 7.5 7.5 4.143 0 7.5-3.358 7.5-7.5v-16.509c0-4.142-3.357-7.5-7.5-7.5z"/><path d="m234.774 288.26c-4.142 0-7.5 3.358-7.5 7.5 0 6.363-5.177 11.54-11.54 11.54s-11.54-5.177-11.54-11.54c0-4.142-3.358-7.5-7.5-7.5s-7.5 3.358-7.5 7.5c0 14.634 11.906 26.54 26.54 26.54s26.54-11.906 26.54-26.54c0-4.142-3.358-7.5-7.5-7.5z"/></g></g></svg>